<svg width="50" height="50" viewBox="0 0 50 50" fill="none" xmlns="http://www.w3.org/2000/svg">
<path d="M21.875 25.9219L17.8281 21.875L15.625 24.0781L21.875 30.3281L34.375 17.8281L32.1719 15.625L21.875 25.9219Z" fill="#2196F3"/>
<path d="M25 46.875L15.35 41.7297C12.5987 40.2664 10.298 38.0814 8.69475 35.4092C7.09152 32.7371 6.24636 29.6787 6.25001 26.5625V6.25C6.25001 5.4212 6.57925 4.62634 7.1653 4.04029C7.75135 3.45424 8.54621 3.125 9.37501 3.125H40.625C41.4538 3.125 42.2487 3.45424 42.8347 4.04029C43.4208 4.62634 43.75 5.4212 43.75 6.25V26.5625C43.7537 29.6787 42.9085 32.7371 41.3053 35.4092C39.702 38.0814 37.4013 40.2664 34.65 41.7297L25 46.875ZM9.37501 6.25V26.5625C9.37327 29.112 10.0654 31.6139 11.3773 33.8C12.6892 35.9861 14.5713 37.774 16.8219 38.9719L25 43.3328L33.1781 38.9734C35.4289 37.7754 37.3112 35.9873 38.6231 33.8009C39.935 31.6145 40.627 29.1123 40.625 26.5625V6.25H9.37501Z" fill="#2196F3"/>
</svg>
