<svg width="50" height="50" viewBox="0 0 50 50" fill="none" xmlns="http://www.w3.org/2000/svg">
<path d="M41.667 12.4998C42.8753 12.4998 43.8545 12.9165 44.6253 13.729C45.417 14.5832 45.8337 15.5207 45.8337 16.6665V39.5832C45.8337 40.729 45.417 41.6665 44.6253 42.5207C43.8545 43.3332 42.8753 43.7498 41.667 43.7498H8.33366C7.12533 43.7498 6.14616 43.3332 5.37533 42.5207C4.58366 41.6665 4.16699 40.729 4.16699 39.5832V16.6665C4.16699 15.5207 4.58366 14.5832 5.37533 13.729C6.14616 12.9165 7.12533 12.4998 8.33366 12.4998H16.667V8.33317C16.667 7.12484 17.0837 6.14567 17.8753 5.37484C18.6462 4.58317 19.6253 4.1665 20.8337 4.1665H29.167C30.3753 4.1665 31.3545 4.58317 32.1253 5.37484C32.917 6.14567 33.3337 7.12484 33.3337 8.33317V12.4998H41.667ZM8.33366 16.6665V39.5832H41.667V16.6665H8.33366ZM29.167 12.4998V8.33317H20.8337V12.4998H29.167Z" fill="#2196F3"/>
</svg>
